<?xml version="1.0" encoding="UTF-8"?>
<svg xmlns="http://www.w3.org/2000/svg" xmlns:xlink="http://www.w3.org/1999/xlink" width="104.634pt" height="82.54pt" viewBox="0 0 104.634 82.54">
<defs>
<g>
<g id="glyph-0-0">
<path d="M 5.859375 -0.453125 L 5.796875 -1.140625 C 5.5 -0.9375 5.21875 -0.75 4.875 -0.640625 C 4.5625 -0.53125 4.203125 -0.53125 3.875 -0.53125 C 3.21875 -0.53125 2.625 -0.875 2.21875 -1.390625 C 1.765625 -1.96875 1.546875 -2.71875 1.546875 -3.453125 C 1.546875 -4.203125 1.765625 -4.953125 2.21875 -5.546875 C 2.625 -6.046875 3.21875 -6.40625 3.875 -6.40625 C 4.171875 -6.40625 4.46875 -6.375 4.765625 -6.28125 C 5.0625 -6.1875 5.34375 -6.046875 5.609375 -5.859375 L 5.734375 -6.671875 C 5.4375 -6.796875 5.140625 -6.890625 4.8125 -6.953125 C 4.5 -7.015625 4.1875 -7.03125 3.875 -7.03125 C 2.984375 -7.03125 2.1875 -6.640625 1.59375 -5.984375 C 0.984375 -5.296875 0.65625 -4.390625 0.65625 -3.453125 C 0.65625 -2.53125 0.984375 -1.625 1.59375 -0.9375 C 2.1875 -0.296875 2.984375 0.109375 3.875 0.109375 C 4.21875 0.109375 4.5625 0.09375 4.90625 0 C 5.25 -0.09375 5.546875 -0.265625 5.859375 -0.453125 Z M 5.859375 -0.453125 "/>
</g>
<g id="glyph-0-1">
<path d="M 6.109375 0 L 6.109375 -6.921875 L 5.21875 -6.921875 L 5.21875 -3.890625 L 1.828125 -3.890625 L 1.828125 -6.921875 L 0.9375 -6.921875 L 0.9375 0 L 1.828125 0 L 1.828125 -3.296875 L 5.21875 -3.296875 L 5.21875 0 Z M 6.109375 0 "/>
</g>
<g id="glyph-0-2">
<path d="M 4.5625 -1.796875 C 4.5625 -2.703125 3.859375 -3.3125 3.1875 -3.53125 C 3.9375 -3.9375 4.28125 -4.609375 4.28125 -5.25 C 4.28125 -6.09375 3.453125 -6.765625 2.46875 -6.765625 C 1.703125 -6.765625 0.984375 -6.359375 0.5625 -5.65625 L 0.921875 -5.125 C 1.203125 -5.828125 1.859375 -6.1875 2.46875 -6.1875 C 2.984375 -6.1875 3.46875 -5.875 3.46875 -5.25 C 3.46875 -4.640625 3.0625 -4.046875 2.453125 -3.90625 C 2.390625 -3.890625 2.375 -3.890625 1.671875 -3.84375 L 1.671875 -3.234375 L 2.375 -3.234375 C 3.453125 -3.234375 3.671875 -2.296875 3.671875 -1.796875 C 3.671875 -1.03125 3.203125 -0.390625 2.4375 -0.390625 C 1.75 -0.390625 0.96875 -0.734375 0.53125 -1.421875 L 0.421875 -0.8125 C 1.140625 0.125 2.0625 0.21875 2.46875 0.21875 C 3.671875 0.21875 4.5625 -0.75 4.5625 -1.796875 Z M 4.5625 -1.796875 "/>
</g>
</g>
<clipPath id="clip-0">
<path clip-rule="nonzero" d="M 57 75 L 63 75 L 63 82.308594 L 57 82.308594 Z M 57 75 "/>
</clipPath>
<clipPath id="clip-1">
<path clip-rule="nonzero" d="M 63 75 L 75 75 L 75 82.308594 L 63 82.308594 Z M 63 75 "/>
</clipPath>
<clipPath id="clip-2">
<path clip-rule="nonzero" d="M 93 23 L 104.449219 23 L 104.449219 31 L 93 31 Z M 93 23 "/>
</clipPath>
</defs>
<path fill="none" stroke-width="0.3985" stroke-linecap="butt" stroke-linejoin="miter" stroke="rgb(0%, 0%, 0%)" stroke-opacity="1" stroke-miterlimit="10" d="M 49.302781 -0.00109375 C 49.302781 10.721563 40.611375 19.412969 29.888719 19.412969 C 19.166062 19.412969 10.474656 10.721563 10.474656 -0.00109375 C 10.474656 -10.72375 19.166062 -19.415156 29.888719 -19.415156 C 40.611375 -19.415156 49.302781 -10.72375 49.302781 -0.00109375 " transform="matrix(1, 0, 0, -1, -0.002, 26.87)"/>
<path fill="none" stroke-width="0.3985" stroke-linecap="butt" stroke-linejoin="miter" stroke="rgb(0%, 0%, 0%)" stroke-opacity="1" stroke-miterlimit="10" d="M -0.00190625 -0.00109375 L 14.943406 -25.883906 " transform="matrix(1, 0, 0, -1, -0.002, 26.87)"/>
<path fill="none" stroke-width="0.3985" stroke-linecap="butt" stroke-linejoin="miter" stroke="rgb(0%, 0%, 0%)" stroke-opacity="1" stroke-miterlimit="10" d="M 14.943406 -25.883906 L 44.834031 -25.883906 " transform="matrix(1, 0, 0, -1, -0.002, 26.87)"/>
<g clip-path="url(#clip-0)">
<g fill="rgb(0%, 0%, 0%)" fill-opacity="1">
<use xlink:href="#glyph-0-0" x="56.592" y="82.098"/>
</g>
</g>
<g clip-path="url(#clip-1)">
<g fill="rgb(0%, 0%, 0%)" fill-opacity="1">
<use xlink:href="#glyph-0-1" x="62.957" y="82.098"/>
<use xlink:href="#glyph-0-2" x="70.01351" y="82.098"/>
</g>
</g>
<path fill="none" stroke-width="0.3985" stroke-linecap="butt" stroke-linejoin="miter" stroke="rgb(0%, 0%, 0%)" stroke-opacity="1" stroke-miterlimit="10" d="M 44.834031 -25.883906 L 56.78325 -46.583125 " transform="matrix(1, 0, 0, -1, -0.002, 26.87)"/>
<path fill="none" stroke-width="0.3985" stroke-linecap="butt" stroke-linejoin="miter" stroke="rgb(0%, 0%, 0%)" stroke-opacity="1" stroke-miterlimit="10" d="M 44.834031 -25.883906 L 59.775437 -0.00109375 " transform="matrix(1, 0, 0, -1, -0.002, 26.87)"/>
<g fill="rgb(0%, 0%, 0%)" fill-opacity="1">
<use xlink:href="#glyph-0-0" x="86.48" y="30.329"/>
</g>
<g clip-path="url(#clip-2)">
<g fill="rgb(0%, 0%, 0%)" fill-opacity="1">
<use xlink:href="#glyph-0-1" x="92.846" y="30.329"/>
<use xlink:href="#glyph-0-2" x="99.90251" y="30.329"/>
</g>
</g>
<path fill="none" stroke-width="0.3985" stroke-linecap="butt" stroke-linejoin="miter" stroke="rgb(0%, 0%, 0%)" stroke-opacity="1" stroke-miterlimit="10" d="M 59.775437 -0.00109375 L 84.490281 -0.00109375 " transform="matrix(1, 0, 0, -1, -0.002, 26.87)"/>
<path fill="none" stroke-width="0.3985" stroke-linecap="butt" stroke-linejoin="miter" stroke="rgb(0%, 0%, 0%)" stroke-opacity="1" stroke-miterlimit="10" d="M 59.775437 -0.00109375 L 44.834031 25.885625 " transform="matrix(1, 0, 0, -1, -0.002, 26.87)"/>
<path fill="none" stroke-width="0.3985" stroke-linecap="butt" stroke-linejoin="miter" stroke="rgb(0%, 0%, 0%)" stroke-opacity="1" stroke-miterlimit="10" d="M 44.834031 25.885625 L 14.943406 25.885625 " transform="matrix(1, 0, 0, -1, -0.002, 26.87)"/>
<path fill="none" stroke-width="0.3985" stroke-linecap="butt" stroke-linejoin="miter" stroke="rgb(0%, 0%, 0%)" stroke-opacity="1" stroke-miterlimit="10" d="M 14.943406 25.885625 L -0.00190625 -0.00109375 " transform="matrix(1, 0, 0, -1, -0.002, 26.87)"/>
</svg>
