<?xml version="1.0" encoding="UTF-8"?>
<svg xmlns="http://www.w3.org/2000/svg" xmlns:xlink="http://www.w3.org/1999/xlink" width="263.556pt" height="10.648pt" viewBox="0 0 263.556 10.648">
<defs>
<g>
<g id="glyph-0-0">
<path d="M 5.546875 -5.109375 L 5.546875 -1.84375 C 5.546875 -1.65625 5.546875 -1.546875 5.46875 -1.546875 C 5.4375 -1.546875 5.28125 -1.71875 5 -2.09375 L 1.578125 -6.4375 L 0.234375 -6.453125 C 0.171875 -6.390625 0.171875 -6.1875 0.234375 -6.125 C 0.65625 -6.09375 0.953125 -5.734375 1.015625 -5.484375 L 1.015625 -1.328125 C 1.015625 -0.4375 0.84375 -0.375 0.15625 -0.3125 C 0.09375 -0.25 0.09375 -0.046875 0.15625 0.015625 C 0.578125 0.015625 1.03125 0 1.265625 0 C 1.5 0 1.953125 0.015625 2.375 0.015625 C 2.4375 -0.046875 2.4375 -0.25 2.375 -0.3125 C 1.671875 -0.375 1.5 -0.421875 1.5 -1.328125 L 1.5 -4.375 C 1.5 -4.71875 1.5 -4.859375 1.578125 -4.859375 C 1.640625 -4.859375 1.75 -4.75 1.921875 -4.53125 L 5.40625 -0.140625 C 5.515625 0.015625 5.640625 0.09375 5.796875 0.09375 C 5.9375 0.09375 6.03125 -0.015625 6.03125 -0.203125 L 6.03125 -5.109375 C 6.03125 -5.984375 6.203125 -6.046875 6.890625 -6.125 C 6.953125 -6.1875 6.953125 -6.390625 6.890625 -6.453125 C 6.484375 -6.4375 6.015625 -6.4375 5.78125 -6.4375 C 5.5625 -6.4375 5.109375 -6.4375 4.671875 -6.453125 C 4.609375 -6.390625 4.609375 -6.1875 4.671875 -6.125 C 5.375 -6.046875 5.546875 -6.015625 5.546875 -5.109375 Z M 5.546875 -5.109375 "/>
</g>
<g id="glyph-0-1">
<path d="M 2.921875 -2.328125 L 2.921875 -1 C 2.921875 -0.875 2.859375 -0.8125 2.78125 -0.75 C 2.515625 -0.53125 2.1875 -0.3125 1.90625 -0.3125 C 1.40625 -0.3125 1.1875 -0.703125 1.1875 -1.015625 C 1.1875 -1.46875 1.390625 -1.921875 2.140625 -2.109375 Z M 2.921875 -0.484375 C 2.984375 -0.171875 3.078125 0.09375 3.59375 0.09375 C 3.96875 0.09375 4.328125 -0.0625 4.53125 -0.265625 C 4.515625 -0.390625 4.46875 -0.46875 4.359375 -0.53125 C 4.28125 -0.46875 4.109375 -0.375 4 -0.375 C 3.703125 -0.375 3.703125 -0.765625 3.703125 -1.21875 L 3.703125 -2.6875 C 3.703125 -4.109375 2.921875 -4.375 2.1875 -4.375 C 1.375 -4.375 0.546875 -3.84375 0.546875 -3.265625 C 0.546875 -3.03125 0.671875 -2.90625 0.890625 -2.90625 C 1.1875 -2.90625 1.359375 -3.125 1.359375 -3.25 C 1.359375 -3.3125 1.359375 -3.390625 1.328125 -3.421875 C 1.328125 -3.453125 1.3125 -3.515625 1.3125 -3.625 C 1.3125 -3.9375 1.734375 -4.046875 2.109375 -4.046875 C 2.453125 -4.046875 2.921875 -3.875 2.921875 -2.75 C 2.921875 -2.6875 2.890625 -2.640625 2.859375 -2.625 L 2 -2.421875 C 1.046875 -2.1875 0.359375 -1.65625 0.359375 -0.984375 C 0.359375 -0.15625 0.921875 0.09375 1.609375 0.09375 C 1.953125 0.09375 2.265625 0.015625 2.703125 -0.3125 L 2.90625 -0.484375 Z M 2.921875 -0.484375 "/>
</g>
<g id="glyph-0-2">
<path d="M 0.4375 -2.515625 C 0.4375 -2.0625 0.484375 0.234375 2.546875 2.03125 C 2.65625 2.015625 2.734375 1.9375 2.765625 1.859375 C 2.4375 1.484375 1.265625 0.109375 1.265625 -2.515625 C 1.265625 -5.140625 2.4375 -6.515625 2.765625 -6.875 C 2.71875 -6.96875 2.65625 -7.03125 2.546875 -7.046875 C 1.359375 -6.03125 0.4375 -4.359375 0.4375 -2.515625 Z M 0.4375 -2.515625 "/>
</g>
<g id="glyph-0-3">
<path d="M 3.1875 -2.78125 C 3.1875 -1.859375 2.71875 -1.671875 2.34375 -1.671875 C 1.5 -1.671875 1.421875 -2.375 1.421875 -3.015625 C 1.421875 -3.703125 1.671875 -4.0625 2.21875 -4.0625 C 2.84375 -4.0625 3.1875 -3.609375 3.1875 -2.78125 Z M 1.3125 0.09375 C 1.421875 0.125 1.578125 0.15625 1.71875 0.15625 C 2.03125 0.15625 2.296875 0.125 2.4375 0.125 C 2.9375 0.125 3.359375 0.125 3.65625 0.296875 C 4.03125 0.515625 4.15625 0.640625 4.15625 0.90625 C 4.15625 1.625 3.09375 2 2.203125 2 C 1.84375 2 1 1.71875 1 1.03125 C 1 0.703125 1.03125 0.453125 1.3125 0.09375 Z M 4.421875 -3.859375 C 4.609375 -3.859375 4.796875 -4.03125 4.796875 -4.234375 C 4.796875 -4.453125 4.609375 -4.609375 4.34375 -4.609375 C 4.078125 -4.609375 3.59375 -4.4375 3.34375 -4.09375 C 3.21875 -4.171875 2.890625 -4.375 2.296875 -4.375 C 1.421875 -4.375 0.59375 -3.78125 0.59375 -2.859375 C 0.59375 -2.328125 0.84375 -2.015625 1.109375 -1.75 C 0.84375 -1.5 0.671875 -1.078125 0.671875 -0.734375 C 0.671875 -0.375 0.875 -0.09375 1.140625 0.03125 C 0.59375 0.34375 0.3125 0.8125 0.3125 1.234375 C 0.3125 2.109375 1.140625 2.375 1.90625 2.375 C 3.25 2.375 4.703125 1.71875 4.703125 0.640625 C 4.703125 0.328125 4.5625 0.078125 4.265625 -0.15625 C 3.875 -0.484375 3.1875 -0.484375 2.8125 -0.484375 C 2.625 -0.484375 2.375 -0.46875 2.140625 -0.4375 C 2 -0.421875 1.890625 -0.421875 1.84375 -0.421875 C 1.5625 -0.421875 1.203125 -0.5625 1.203125 -0.984375 C 1.203125 -1.1875 1.265625 -1.390625 1.390625 -1.5625 C 1.625 -1.421875 1.90625 -1.359375 2.296875 -1.359375 C 3.171875 -1.359375 3.984375 -1.90625 3.984375 -2.875 C 3.984375 -3.34375 3.84375 -3.625 3.546875 -3.921875 C 3.625 -4.015625 3.8125 -4.15625 3.953125 -4.15625 C 4.015625 -4.15625 4.09375 -4.125 4.140625 -4.03125 C 4.1875 -3.953125 4.3125 -3.859375 4.421875 -3.859375 Z M 4.421875 -3.859375 "/>
</g>
<g id="glyph-0-4">
<path d="M 2.53125 -2.515625 C 2.53125 -2.953125 2.5 -5.265625 0.421875 -7.0625 C 0.3125 -7.03125 0.234375 -6.96875 0.203125 -6.890625 C 0.53125 -6.515625 1.703125 -5.140625 1.703125 -2.515625 C 1.703125 0.109375 0.53125 1.484375 0.203125 1.84375 C 0.234375 1.953125 0.296875 2.03125 0.421875 2.03125 C 1.609375 1 2.53125 -0.65625 2.53125 -2.515625 Z M 2.53125 -2.515625 "/>
</g>
<g id="glyph-0-5">
<path d="M 2.5 -4.34375 L 2.5 -2.75 L 0.84375 -2.75 C 0.734375 -2.75 0.59375 -2.5625 0.59375 -2.40625 C 0.59375 -2.328125 0.65625 -2.25 0.75 -2.25 L 2.5 -2.25 L 2.5 -0.5625 C 2.5 -0.46875 2.578125 -0.40625 2.65625 -0.40625 C 2.796875 -0.40625 2.984375 -0.53125 2.984375 -0.65625 L 2.984375 -2.25 L 4.609375 -2.25 C 4.75 -2.25 4.890625 -2.484375 4.890625 -2.578125 C 4.890625 -2.65625 4.84375 -2.75 4.75 -2.75 L 2.984375 -2.75 L 2.984375 -4.46875 C 2.984375 -4.5625 2.90625 -4.609375 2.828125 -4.609375 C 2.71875 -4.609375 2.5 -4.46875 2.5 -4.34375 Z M 2.5 -4.34375 "/>
</g>
<g id="glyph-0-6">
<path d="M 1.234375 -2.8125 C 1.421875 -3.9375 2.125 -4.03125 2.359375 -4.03125 C 2.734375 -4.03125 3.1875 -3.8125 3.1875 -2.984375 C 3.1875 -2.890625 3.15625 -2.84375 3.046875 -2.84375 Z M 3.84375 -0.921875 C 3.484375 -0.546875 3.1875 -0.390625 2.609375 -0.390625 C 2.25 -0.390625 1.828125 -0.59375 1.53125 -1.109375 C 1.328125 -1.4375 1.203125 -1.890625 1.203125 -2.46875 L 3.859375 -2.453125 C 3.984375 -2.453125 4.046875 -2.515625 4.046875 -2.625 C 4.046875 -3.453125 3.75 -4.359375 2.359375 -4.359375 C 1.5 -4.359375 0.375 -3.53125 0.375 -2.015625 C 0.375 -1.453125 0.515625 -0.921875 0.84375 -0.53125 C 1.171875 -0.140625 1.640625 0.09375 2.359375 0.09375 C 3.125 0.09375 3.65625 -0.25 4.0625 -0.765625 C 4.03125 -0.875 3.96875 -0.921875 3.84375 -0.921875 Z M 3.84375 -0.921875 "/>
</g>
<g id="glyph-0-7">
<path d="M 2.703125 -5.046875 L 2.703125 -2.1875 L 0.796875 -2.1875 C 1.3125 -3 2.015625 -4.109375 2.703125 -5.046875 Z M 4.28125 -2.1875 L 3.453125 -2.1875 L 3.453125 -5.09375 C 3.453125 -5.59375 3.453125 -5.984375 3.484375 -6.0625 L 3.453125 -6.078125 L 3.140625 -6.078125 C 3.078125 -6.078125 3.015625 -6.015625 2.984375 -5.96875 C 2.359375 -5.1875 1.1875 -3.5625 0.28125 -2.140625 C 0.3125 -1.984375 0.375 -1.71875 0.671875 -1.71875 L 2.703125 -1.71875 L 2.703125 -0.796875 C 2.703125 -0.34375 2.328125 -0.34375 1.890625 -0.3125 C 1.828125 -0.25 1.828125 -0.046875 1.890625 0.015625 C 2.21875 0.015625 2.609375 0 3.078125 0 C 3.453125 0 3.84375 0.015625 4.15625 0.015625 C 4.21875 -0.046875 4.21875 -0.25 4.15625 -0.3125 C 3.671875 -0.34375 3.453125 -0.328125 3.453125 -0.796875 L 3.453125 -1.71875 L 4.140625 -1.71875 C 4.28125 -1.71875 4.4375 -1.90625 4.4375 -2.03125 C 4.4375 -2.125 4.390625 -2.1875 4.28125 -2.1875 Z M 4.28125 -2.1875 "/>
</g>
<g id="glyph-0-8">
<path d="M 0.5625 -0.421875 C 0.5625 -0.140625 0.8125 0.09375 1.09375 0.09375 C 1.390625 0.09375 1.625 -0.140625 1.625 -0.421875 C 1.625 -0.71875 1.390625 -0.953125 1.09375 -0.953125 C 0.8125 -0.953125 0.5625 -0.71875 0.5625 -0.421875 Z M 0.5625 -0.421875 "/>
</g>
<g id="glyph-0-9">
<path d="M 1.6875 -5.328125 L 3.484375 -5.328125 C 2.703125 -3.40625 1.90625 -1.453125 1.234375 0.0625 L 1.3125 0.125 L 2 0.09375 C 2.5625 -1.59375 3.109375 -3.25 4.234375 -5.96875 L 4.0625 -6.09375 C 3.890625 -6.046875 3.671875 -5.984375 3.296875 -5.984375 L 1.25 -5.984375 C 0.90625 -5.984375 0.921875 -6.078125 0.75 -6.125 C 0.71875 -6.125 0.703125 -6.125 0.703125 -6.09375 C 0.703125 -5.609375 0.59375 -5.015625 0.515625 -4.5 C 0.609375 -4.453125 0.71875 -4.453125 0.828125 -4.46875 C 1.046875 -5.265625 1.375 -5.328125 1.6875 -5.328125 Z M 1.6875 -5.328125 "/>
</g>
<g id="glyph-1-0">
<path d="M 1.734375 -3.03125 L 1.734375 -1.921875 L 0.59375 -1.921875 C 0.515625 -1.921875 0.421875 -1.796875 0.421875 -1.6875 C 0.421875 -1.625 0.453125 -1.578125 0.515625 -1.578125 L 1.734375 -1.578125 L 1.734375 -0.390625 C 1.734375 -0.328125 1.796875 -0.28125 1.859375 -0.28125 C 1.953125 -0.28125 2.09375 -0.375 2.09375 -0.453125 L 2.09375 -1.578125 L 3.21875 -1.578125 C 3.3125 -1.578125 3.421875 -1.734375 3.421875 -1.8125 C 3.421875 -1.859375 3.390625 -1.921875 3.3125 -1.921875 L 2.09375 -1.921875 L 2.09375 -3.125 C 2.09375 -3.1875 2.03125 -3.21875 1.96875 -3.21875 C 1.90625 -3.21875 1.734375 -3.125 1.734375 -3.03125 Z M 1.734375 -3.03125 "/>
</g>
<g id="glyph-1-1">
<path d="M 0.453125 -1.65625 L 3.28125 -1.65625 C 3.359375 -1.65625 3.453125 -1.796875 3.453125 -1.875 C 3.453125 -1.9375 3.4375 -2 3.359375 -2 L 0.546875 -2 C 0.453125 -2 0.359375 -1.859375 0.359375 -1.78125 C 0.359375 -1.71875 0.390625 -1.65625 0.453125 -1.65625 Z M 0.453125 -1.65625 "/>
</g>
</g>
<clipPath id="clip-0">
<path clip-rule="nonzero" d="M 12 1 L 16 1 L 16 10.472656 L 12 10.472656 Z M 12 1 "/>
</clipPath>
<clipPath id="clip-1">
<path clip-rule="nonzero" d="M 15 1 L 23 1 L 23 10.472656 L 15 10.472656 Z M 15 1 "/>
</clipPath>
<clipPath id="clip-2">
<path clip-rule="nonzero" d="M 65 1 L 69 1 L 69 10.472656 L 65 10.472656 Z M 65 1 "/>
</clipPath>
<clipPath id="clip-3">
<path clip-rule="nonzero" d="M 68 1 L 76 1 L 76 10.472656 L 68 10.472656 Z M 68 1 "/>
</clipPath>
<clipPath id="clip-4">
<path clip-rule="nonzero" d="M 246 1 L 263.335938 1 L 263.335938 10.472656 L 246 10.472656 Z M 246 1 "/>
</clipPath>
</defs>
<g fill="rgb(0%, 0%, 0%)" fill-opacity="1">
<use xlink:href="#glyph-0-0" x="-0.315" y="8.104"/>
<use xlink:href="#glyph-0-1" x="6.648857" y="8.104"/>
</g>
<g clip-path="url(#clip-0)">
<g fill="rgb(0%, 0%, 0%)" fill-opacity="1">
<use xlink:href="#glyph-0-2" x="12.526791" y="8.104"/>
</g>
</g>
<g clip-path="url(#clip-1)">
<g fill="rgb(0%, 0%, 0%)" fill-opacity="1">
<use xlink:href="#glyph-0-3" x="15.386058" y="8.104"/>
<use xlink:href="#glyph-0-4" x="20.367358" y="8.104"/>
</g>
</g>
<path fill="none" stroke-width="0.3985" stroke-linecap="butt" stroke-linejoin="miter" stroke="rgb(0%, 0%, 0%)" stroke-opacity="1" stroke-miterlimit="10" d="M 4.982719 3.420406 L 19.724906 3.420406 " transform="matrix(1, 0, 0, -1, 23.529, 8.104)"/>
<path fill-rule="nonzero" fill="rgb(0%, 0%, 0%)" fill-opacity="1" stroke-width="0.3985" stroke-linecap="round" stroke-linejoin="round" stroke="rgb(0%, 0%, 0%)" stroke-opacity="1" stroke-miterlimit="10" d="M -0.00136375 0.00118625 L -3.485739 1.044155 L -1.743551 0.00118625 L -3.485739 -1.045689 L -0.00136375 0.00118625 " transform="matrix(1, 0, 0, -1, 43.25527, 4.68478)"/>
<g fill="rgb(0%, 0%, 0%)" fill-opacity="1">
<use xlink:href="#glyph-0-0" x="48.635" y="8.104"/>
<use xlink:href="#glyph-0-1" x="55.598857" y="8.104"/>
</g>
<g fill="rgb(0%, 0%, 0%)" fill-opacity="1">
<use xlink:href="#glyph-1-0" x="60.152" y="4.041"/>
</g>
<g clip-path="url(#clip-2)">
<g fill="rgb(0%, 0%, 0%)" fill-opacity="1">
<use xlink:href="#glyph-0-2" x="65.315" y="8.104"/>
</g>
</g>
<g clip-path="url(#clip-3)">
<g fill="rgb(0%, 0%, 0%)" fill-opacity="1">
<use xlink:href="#glyph-0-3" x="68.174266" y="8.104"/>
<use xlink:href="#glyph-0-4" x="73.155566" y="8.104"/>
</g>
</g>
<g fill="rgb(0%, 0%, 0%)" fill-opacity="1">
<use xlink:href="#glyph-0-5" x="79.103238" y="8.104"/>
</g>
<g fill="rgb(0%, 0%, 0%)" fill-opacity="1">
<use xlink:href="#glyph-0-6" x="87.571448" y="8.104"/>
</g>
<g fill="rgb(0%, 0%, 0%)" fill-opacity="1">
<use xlink:href="#glyph-1-1" x="92.025" y="4.041"/>
</g>
<g clip-path="url(#clip-4)">
<g fill="rgb(0%, 0%, 0%)" fill-opacity="1">
<use xlink:href="#glyph-0-2" x="246.371" y="8.104"/>
<use xlink:href="#glyph-0-7" x="249.339855" y="8.104"/>
<use xlink:href="#glyph-0-8" x="253.972464" y="8.104"/>
<use xlink:href="#glyph-0-9" x="256.164236" y="8.104"/>
<use xlink:href="#glyph-0-4" x="260.796845" y="8.104"/>
</g>
</g>
</svg>
